<svg width="72" height="71" viewBox="0 0 72 71" fill="none" xmlns="http://www.w3.org/2000/svg">
<g clip-path="url(#clip0_2362_33119)">
<path d="M42.8762 41.8182C43.095 44.6637 43.8393 47.2466 44.9775 49.5668C46.1594 51.8432 47.9543 53.0251 50.4058 53.0251C51.5002 53.0251 52.6822 52.6749 53.9955 51.9307C55.0922 51.3256 56.3849 50.2959 57.8172 48.8414C58.1781 48.4749 58.7851 48.5119 59.0855 48.9293L65.4107 57.7164C65.644 58.0404 65.6085 58.4865 65.3214 58.7639C62.6262 61.3688 59.8212 63.3472 57.0161 64.626C53.9955 65.9831 51.1062 66.6835 48.3483 66.6835C44.7586 66.6835 41.738 65.5891 39.1989 63.3565C36.7036 61.1239 34.9088 58.1908 33.7706 54.6011C30.3997 58.2346 26.6787 61.3865 22.6075 64.1445C18.7956 66.7133 14.8661 68.7724 10.8561 70.3217C10.4691 70.4711 10.0337 70.2994 9.84714 69.9289L4.37431 59.0604C4.15368 58.6222 4.36824 58.0902 4.82802 57.9191C11.6235 55.3911 17.3328 51.7752 21.9946 47.0715C26.6967 42.327 30.456 36.3118 33.2725 29.0655C33.4308 28.6583 33.8794 28.4431 34.2942 28.5801L46.1538 32.4945C46.5888 32.638 46.8202 33.1123 46.6604 33.5416C45.5108 36.63 44.2494 39.3546 42.8762 41.8182Z" fill="white"/>
<path d="M41.5801 1.16034C41.5802 0.595853 42.141 0.202729 42.6719 0.39471L51.5391 3.60174C51.8614 3.71846 52.0762 4.02449 52.0762 4.36737V12.2306C52.0761 16.6776 50.7866 20.0129 48.252 22.2365C45.717 24.4601 42.1144 25.5724 37.4893 25.5724C35.1766 25.5724 33.1301 25.0831 31.3066 24.1047C29.4834 23.1263 28.0609 21.7916 27.0381 20.1017C26.0152 18.4117 25.4814 16.6328 25.4814 14.676C25.4815 13.7866 25.6146 12.8529 25.8369 11.9191C26.4595 9.47307 27.7492 7.60482 29.7061 6.35955C31.6629 5.06983 34.1984 4.44744 37.3115 4.44744C38.6455 4.44747 40.0683 4.58061 41.5801 4.80291V1.16034Z" fill="white"/>
<ellipse cx="30.3875" cy="12.7855" rx="1.65369" ry="3.02779" transform="rotate(7.94956 30.3875 12.7855)" fill="#02CCDA"/>
</g>
<defs>
<clipPath id="clip0_2362_33119">
<rect width="70.5793" height="70.5793" fill="white" transform="translate(0.752197)"/>
</clipPath>
</defs>
</svg>
