<svg width="17" height="17" viewBox="0 0 17 17" fill="none" xmlns="http://www.w3.org/2000/svg">
<path d="M2.25098 11.5C2.25098 11.0858 1.91519 10.75 1.50098 10.75C1.08676 10.75 0.750977 11.0858 0.750977 11.5H2.25098ZM1.50098 12.5H0.750977H1.50098ZM16.251 11.5C16.251 11.0858 15.9152 10.75 15.501 10.75C15.0868 10.75 14.751 11.0858 14.751 11.5H16.251ZM7.91533 12.0315C7.65657 12.3549 7.70901 12.8269 8.03246 13.0857C8.3559 13.3444 8.82787 13.292 9.08663 12.9685L7.91533 12.0315ZM13.0866 7.96852C13.3454 7.64507 13.2929 7.17311 12.9695 6.91435C12.6461 6.65559 12.1741 6.70803 11.9153 7.03148L13.0866 7.96852ZM7.91533 12.9685C8.17408 13.292 8.64605 13.3444 8.9695 13.0857C9.29294 12.8269 9.34539 12.3549 9.08663 12.0315L7.91533 12.9685ZM5.08663 7.03148C4.82787 6.70803 4.3559 6.65559 4.03246 6.91435C3.70901 7.17311 3.65657 7.64507 3.91532 7.96852L5.08663 7.03148ZM7.75098 12.5C7.75098 12.9142 8.08676 13.25 8.50098 13.25C8.91519 13.25 9.25098 12.9142 9.25098 12.5H7.75098ZM9.25098 1.5C9.25098 1.08579 8.91519 0.75 8.50098 0.75C8.08676 0.75 7.75098 1.08579 7.75098 1.5H9.25098ZM0.750977 11.5V12.5H2.25098V11.5H0.750977ZM0.750977 12.5C0.750977 14.5711 2.42991 16.25 4.50098 16.25V14.75C3.25834 14.75 2.25098 13.7426 2.25098 12.5H0.750977ZM4.50098 16.25H12.501V14.75H4.50098V16.25ZM12.501 16.25C14.572 16.25 16.251 14.5711 16.251 12.5H14.751C14.751 13.7426 13.7436 14.75 12.501 14.75V16.25ZM16.251 12.5V11.5H14.751V12.5H16.251ZM9.08663 12.9685L13.0866 7.96852L11.9153 7.03148L7.91533 12.0315L9.08663 12.9685ZM9.08663 12.0315L5.08663 7.03148L3.91532 7.96852L7.91533 12.9685L9.08663 12.0315ZM9.25098 12.5V1.5H7.75098V12.5H9.25098Z" fill="#909090"/>
</svg>
