<svg width="20" height="20" viewBox="0 0 20 20" fill="none" xmlns="http://www.w3.org/2000/svg">
<path fill-rule="evenodd" clip-rule="evenodd" d="M6.40603 18.5067C3.74237 18.5903 1.51281 16.5038 1.41978 13.8405V9.17295L1.41353 6.84045C1.25296 5.99543 1.67935 5.14778 2.45353 4.77295L7.50978 1.7567C9.13365 0.761702 11.1784 0.761702 12.8023 1.7567L17.8585 4.7767C18.6327 5.15153 19.0591 5.99918 18.8985 6.8442L18.8923 9.17795V13.8442C18.7972 16.5061 16.5683 18.5903 13.906 18.5067H6.40603Z" stroke="white" stroke-width="1.5" stroke-linecap="round" stroke-linejoin="round"/>
<path d="M1.79211 6.19283C1.43451 5.9838 0.975163 6.10425 0.766136 6.46185C0.557109 6.81945 0.677554 7.2788 1.03516 7.48783L1.79211 6.19283ZM7.55113 10.4278L7.93613 9.78414L7.92961 9.78033L7.55113 10.4278ZM12.7599 10.4278L12.3814 9.7803L12.3749 9.78417L12.7599 10.4278ZM19.2759 7.48783C19.6335 7.2788 19.7539 6.81945 19.5449 6.46185C19.3359 6.10425 18.8765 5.9838 18.5189 6.19283L19.2759 7.48783ZM12.4739 6.73391C12.8758 6.83437 13.283 6.59005 13.3834 6.1882C13.4839 5.78636 13.2396 5.37916 12.8377 5.27869L12.4739 6.73391ZM10.1558 5.3813L10.3377 4.65369C10.2183 4.62384 10.0934 4.62384 9.97392 4.65369L10.1558 5.3813ZM7.47392 5.27869C7.07207 5.37916 6.82775 5.78636 6.92822 6.1882C7.02868 6.59005 7.43588 6.83437 7.83772 6.73391L7.47392 5.27869ZM1.41364 6.84033L1.03516 7.48783L7.17266 11.0753L7.55113 10.4278L7.92961 9.78033L1.79211 6.19283L1.41364 6.84033ZM7.55113 10.4278L7.16616 11.0715C9.00699 12.1725 11.304 12.1725 13.1449 11.0715L12.7599 10.4278L12.3749 9.78417C11.0082 10.6016 9.30281 10.6016 7.93611 9.78417L7.55113 10.4278ZM12.7599 10.4278L13.1384 11.0753L19.2759 7.48783L18.8974 6.84033L18.5189 6.19283L12.3814 9.78033L12.7599 10.4278ZM12.6558 6.0063L12.8377 5.27869L10.3377 4.65369L10.1558 5.3813L9.97392 6.10891L12.4739 6.73391L12.6558 6.0063ZM10.1558 5.3813L9.97392 4.65369L7.47392 5.27869L7.65582 6.0063L7.83772 6.73391L10.3377 6.10891L10.1558 5.3813Z" fill="white"/>
</svg>
