<svg width="25" height="26" viewBox="0 0 25 26" fill="none" xmlns="http://www.w3.org/2000/svg">
<path d="M11.6182 1.35861L9.01823 6.25861C8.81823 6.75861 8.41823 7.15861 8.01823 7.45861C7.61823 7.75861 7.11823 7.95861 6.51823 8.05861L1.01823 9.15861C0.318229 9.25861 -0.0817711 10.1586 0.418229 10.7586L4.31823 15.4586C5.01823 16.2586 5.31823 17.2586 5.21823 18.2586L4.51823 24.1586C4.41823 24.9586 5.21823 25.5586 5.91823 25.1586L10.9182 22.7586C11.4182 22.5586 12.0182 22.3586 12.5182 22.3586V0.758606C12.1182 0.758606 11.8182 0.958605 11.6182 1.35861Z" fill="#FFEA4C"/>
<path d="M24.0181 8.95867L18.5181 7.95867C18.0181 7.85867 17.5181 7.65867 17.0181 7.35867C16.6181 7.05867 16.2181 6.65867 16.0181 6.15867L13.4181 1.25867C13.2181 0.858667 12.9181 0.758667 12.5181 0.758667V22.2587C13.0181 22.2587 13.6181 22.3587 14.0181 22.6587L19.1181 24.9587C19.8181 25.2587 20.6181 24.6587 20.5181 23.9587L19.8181 18.0587C19.7181 17.0587 20.0181 16.0587 20.7181 15.2587L24.6181 10.6587C25.1181 10.0587 24.7181 9.15867 24.0181 8.95867Z" fill="#E4E4E4"/>
</svg>
