<svg width="15" height="15" viewBox="0 0 15 15" fill="none" xmlns="http://www.w3.org/2000/svg">
<path fill-rule="evenodd" clip-rule="evenodd" d="M4.9895 14.174C3.03615 14.2353 1.40114 12.7052 1.33292 10.7521V7.32922L1.32834 5.61872C1.21059 4.99903 1.52327 4.37743 2.091 4.10255L5.79892 1.89064C6.98976 1.16097 8.48925 1.16097 9.68009 1.89064L13.388 4.1053C13.9557 4.38018 14.2684 5.00178 14.1507 5.62147L14.1461 7.33289V10.7548C14.0764 12.7068 12.4418 14.2353 10.4895 14.174H4.9895Z" stroke="white" stroke-linecap="round" stroke-linejoin="round"/>
<path d="M1.58109 5.18662C1.34269 5.04727 1.03646 5.12757 0.89711 5.36597C0.757759 5.60437 0.838056 5.9106 1.07646 6.04995L1.58109 5.18662ZM5.82961 8.24912L6.08628 7.82L6.08193 7.81745L5.82961 8.24912ZM9.64936 8.24912L9.39703 7.81743L9.39271 7.82002L9.64936 8.24912ZM14.4025 6.04995C14.6409 5.9106 14.7212 5.60437 14.5819 5.36597C14.4425 5.12757 14.1363 5.04727 13.8979 5.18662L14.4025 6.04995ZM9.45205 5.49248C9.71995 5.55945 9.99142 5.39657 10.0584 5.12867C10.1254 4.86078 9.96249 4.58931 9.69459 4.52233L9.45205 5.49248ZM7.73999 4.54907L7.86126 4.064C7.78164 4.0441 7.69834 4.0441 7.61872 4.064L7.73999 4.54907ZM5.78539 4.52233C5.51749 4.58931 5.35461 4.86078 5.42159 5.12867C5.48856 5.39657 5.76003 5.55945 6.02793 5.49248L5.78539 4.52233ZM1.32878 5.61829L1.07646 6.04995L5.57729 8.68079L5.82961 8.24912L6.08193 7.81745L1.58109 5.18662L1.32878 5.61829ZM5.82961 8.24912L5.57296 8.67822C6.9071 9.47619 8.57187 9.47619 9.90601 8.67822L9.64936 8.24912L9.39271 7.82002C8.37466 8.42892 7.10431 8.42892 6.08626 7.82002L5.82961 8.24912ZM9.64936 8.24912L9.90168 8.68079L14.4025 6.04995L14.1502 5.61829L13.8979 5.18662L9.39704 7.81745L9.64936 8.24912ZM9.57332 5.00741L9.69459 4.52233L7.86126 4.064L7.73999 4.54907L7.61872 5.03414L9.45205 5.49248L9.57332 5.00741ZM7.73999 4.54907L7.61872 4.064L5.78539 4.52233L5.90666 5.00741L6.02793 5.49248L7.86126 5.03414L7.73999 4.54907Z" fill="white"/>
</svg>
