<svg width="13" height="13" viewBox="0 0 13 13" fill="none" xmlns="http://www.w3.org/2000/svg">
<g clip-path="url(#clip0_2732_28707)">
<path d="M0.541504 9.31675C0.541504 9.0098 0.620497 8.72769 0.778483 8.47039C0.936469 8.2131 1.14636 8.01675 1.40817 7.88133C1.96789 7.60147 2.53664 7.39157 3.11442 7.25164C3.6922 7.11171 4.279 7.04175 4.87484 7.04175C5.47067 7.04175 6.05748 7.11171 6.63525 7.25164C7.21303 7.39157 7.78178 7.60147 8.3415 7.88133C8.60331 8.01675 8.81321 8.2131 8.97119 8.47039C9.12918 8.72769 9.20817 9.0098 9.20817 9.31675V9.75008C9.20817 10.048 9.10209 10.303 8.88994 10.5152C8.67779 10.7273 8.42275 10.8334 8.12484 10.8334H1.62484C1.32692 10.8334 1.07189 10.7273 0.859733 10.5152C0.64758 10.303 0.541504 10.048 0.541504 9.75008V9.31675ZM9.99359 10.8334C10.0929 10.6709 10.1674 10.4971 10.217 10.3121C10.2667 10.127 10.2915 9.93966 10.2915 9.75008V9.20841C10.2915 8.81119 10.1809 8.42977 9.95973 8.06414C9.73855 7.69852 9.42484 7.3848 9.01859 7.123C9.479 7.17716 9.91234 7.2697 10.3186 7.4006C10.7248 7.53151 11.104 7.69175 11.4561 7.88133C11.7811 8.06189 12.0294 8.26275 12.2009 8.48394C12.3724 8.70512 12.4582 8.94661 12.4582 9.20841V9.75008C12.4582 10.048 12.3521 10.303 12.1399 10.5152C11.9278 10.7273 11.6728 10.8334 11.3748 10.8334H9.99359ZM4.87484 6.50008C4.279 6.50008 3.76893 6.28793 3.34463 5.86362C2.92032 5.43932 2.70817 4.92925 2.70817 4.33341C2.70817 3.73758 2.92032 3.22751 3.34463 2.80321C3.76893 2.3789 4.279 2.16675 4.87484 2.16675C5.47067 2.16675 5.98074 2.3789 6.40505 2.80321C6.82935 3.22751 7.0415 3.73758 7.0415 4.33341C7.0415 4.92925 6.82935 5.43932 6.40505 5.86362C5.98074 6.28793 5.47067 6.50008 4.87484 6.50008ZM10.2915 4.33341C10.2915 4.92925 10.0794 5.43932 9.65505 5.86362C9.23074 6.28793 8.72067 6.50008 8.12484 6.50008C8.02553 6.50008 7.89914 6.4888 7.74567 6.46623C7.5922 6.44366 7.46581 6.41883 7.3665 6.39175C7.61025 6.10286 7.79758 5.78237 7.92848 5.43029C8.05939 5.07821 8.12484 4.71258 8.12484 4.33341C8.12484 3.95425 8.05939 3.58862 7.92848 3.23654C7.79758 2.88446 7.61025 2.56397 7.3665 2.27508C7.49289 2.22994 7.61928 2.2006 7.74567 2.18706C7.87206 2.17352 7.99845 2.16675 8.12484 2.16675C8.72067 2.16675 9.23074 2.3789 9.65505 2.80321C10.0794 3.22751 10.2915 3.73758 10.2915 4.33341Z" fill="#39A3FF"/>
<path d="M9.99378 10.8334C10.0931 10.6709 10.1676 10.4971 10.2172 10.3121C10.2669 10.127 10.2917 9.93966 10.2917 9.75008V9.20841C10.2917 8.81119 10.1811 8.42977 9.95993 8.06414C9.73875 7.69852 9.42503 7.3848 9.01878 7.123C9.4792 7.17717 9.91253 7.2697 10.3188 7.4006C10.725 7.53151 11.1042 7.69175 11.4563 7.88133C11.7813 8.06189 12.0295 8.26276 12.2011 8.48394C12.3726 8.70512 12.4584 8.94661 12.4584 9.20841V9.75008C12.4584 10.048 12.3523 10.303 12.1401 10.5152C11.928 10.7273 11.6729 10.8334 11.375 10.8334H9.99378ZM10.2917 4.33341C10.2917 4.92925 10.0795 5.43932 9.65524 5.86362C9.23093 6.28793 8.72087 6.50008 8.12503 6.50008C8.02573 6.50008 7.89934 6.4888 7.74587 6.46623C7.59239 6.44366 7.466 6.41883 7.3667 6.39175C7.61045 6.10286 7.79778 5.78237 7.92868 5.43029C8.05958 5.07821 8.12503 4.71258 8.12503 4.33341C8.12503 3.95425 8.05958 3.58862 7.92868 3.23654C7.79778 2.88446 7.61045 2.56397 7.3667 2.27508C7.49309 2.22994 7.61948 2.2006 7.74587 2.18706C7.87225 2.17352 7.99864 2.16675 8.12503 2.16675C8.72087 2.16675 9.23093 2.3789 9.65524 2.80321C10.0795 3.22751 10.2917 3.73758 10.2917 4.33341Z" fill="#FF42EB"/>
</g>
<defs>
<clipPath id="clip0_2732_28707">
<rect width="13" height="13" fill="white"/>
</clipPath>
</defs>
</svg>
