<svg width="14" height="13" viewBox="0 0 14 13" fill="none" xmlns="http://www.w3.org/2000/svg">
<g clip-path="url(#clip0_3251_9848)">
<path d="M1.34867 9.3165C1.34867 9.00956 1.42766 8.72744 1.58565 8.47015C1.74364 8.21286 1.95353 8.0165 2.21534 7.88109C2.77506 7.60123 3.34381 7.39133 3.92159 7.2514C4.49937 7.11147 5.08617 7.0415 5.682 7.0415C6.27784 7.0415 6.86464 7.11147 7.44242 7.2514C8.0202 7.39133 8.58895 7.60123 9.14867 7.88109C9.41048 8.0165 9.62037 8.21286 9.77836 8.47015C9.93635 8.72744 10.0153 9.00956 10.0153 9.3165V9.74984C10.0153 10.0478 9.90926 10.3028 9.69711 10.5149C9.48496 10.7271 9.22992 10.8332 8.932 10.8332H2.432C2.13409 10.8332 1.87905 10.7271 1.6669 10.5149C1.45475 10.3028 1.34867 10.0478 1.34867 9.74984V9.3165ZM10.8008 10.8332C10.9001 10.6707 10.9745 10.4969 11.0242 10.3118C11.0738 10.1267 11.0987 9.93942 11.0987 9.74984V9.20817C11.0987 8.81095 10.9881 8.42952 10.7669 8.0639C10.5457 7.69827 10.232 7.38456 9.82575 7.12275C10.2862 7.17692 10.7195 7.26946 11.1258 7.40036C11.532 7.53126 11.9112 7.6915 12.2633 7.88109C12.5883 8.06164 12.8365 8.26251 13.008 8.48369C13.1796 8.70487 13.2653 8.94636 13.2653 9.20817V9.74984C13.2653 10.0478 13.1593 10.3028 12.9471 10.5149C12.735 10.7271 12.4799 10.8332 12.182 10.8332H10.8008ZM5.682 6.49984C5.08617 6.49984 4.5761 6.28768 4.1518 5.86338C3.72749 5.43907 3.51534 4.929 3.51534 4.33317C3.51534 3.73734 3.72749 3.22727 4.1518 2.80296C4.5761 2.37866 5.08617 2.1665 5.682 2.1665C6.27784 2.1665 6.78791 2.37866 7.21221 2.80296C7.63652 3.22727 7.84867 3.73734 7.84867 4.33317C7.84867 4.929 7.63652 5.43907 7.21221 5.86338C6.78791 6.28768 6.27784 6.49984 5.682 6.49984ZM11.0987 4.33317C11.0987 4.929 10.8865 5.43907 10.4622 5.86338C10.0379 6.28768 9.52784 6.49984 8.932 6.49984C8.8327 6.49984 8.70631 6.48855 8.55284 6.46598C8.39937 6.44341 8.27298 6.41859 8.17367 6.3915C8.41742 6.10262 8.60475 5.78213 8.73565 5.43005C8.86655 5.07796 8.932 4.71234 8.932 4.33317C8.932 3.954 8.86655 3.58838 8.73565 3.2363C8.60475 2.88421 8.41742 2.56373 8.17367 2.27484C8.30006 2.2297 8.42645 2.20036 8.55284 2.18682C8.67923 2.17327 8.80562 2.1665 8.932 2.1665C9.52784 2.1665 10.0379 2.37866 10.4622 2.80296C10.8865 3.22727 11.0987 3.73734 11.0987 4.33317Z" fill="#39A3FF"/>
</g>
<defs>
<clipPath id="clip0_3251_9848">
<rect width="13" height="13" fill="white" transform="translate(0.807007)"/>
</clipPath>
</defs>
</svg>
