<svg width="14" height="13" viewBox="0 0 14 13" fill="none" xmlns="http://www.w3.org/2000/svg">
<g clip-path="url(#clip0_3251_5275)">
<path d="M1.30533 9.3165C1.30533 9.00956 1.38432 8.72744 1.54231 8.47015C1.70029 8.21286 1.91019 8.0165 2.172 7.88109C2.73172 7.60123 3.30047 7.39133 3.87825 7.2514C4.45602 7.11147 5.04283 7.0415 5.63866 7.0415C6.2345 7.0415 6.8213 7.11147 7.39908 7.2514C7.97686 7.39133 8.54561 7.60123 9.10533 7.88109C9.36713 8.0165 9.57703 8.21286 9.73502 8.47015C9.893 8.72744 9.972 9.00956 9.972 9.3165V9.74984C9.972 10.0478 9.86592 10.3028 9.65377 10.5149C9.44161 10.7271 9.18658 10.8332 8.88866 10.8332H2.38866C2.09075 10.8332 1.83571 10.7271 1.62356 10.5149C1.4114 10.3028 1.30533 10.0478 1.30533 9.74984V9.3165ZM10.7574 10.8332C10.8567 10.6707 10.9312 10.4969 10.9808 10.3118C11.0305 10.1267 11.0553 9.93942 11.0553 9.74984V9.20817C11.0553 8.81095 10.9447 8.42952 10.7236 8.0639C10.5024 7.69827 10.1887 7.38456 9.78241 7.12275C10.2428 7.17692 10.6762 7.26946 11.0824 7.40036C11.4887 7.53126 11.8678 7.6915 12.2199 7.88109C12.5449 8.06164 12.7932 8.26251 12.9647 8.48369C13.1362 8.70487 13.222 8.94636 13.222 9.20817V9.74984C13.222 10.0478 13.1159 10.3028 12.9038 10.5149C12.6916 10.7271 12.4366 10.8332 12.1387 10.8332H10.7574ZM5.63866 6.49984C5.04283 6.49984 4.53276 6.28768 4.10845 5.86338C3.68415 5.43907 3.472 4.929 3.472 4.33317C3.472 3.73734 3.68415 3.22727 4.10845 2.80296C4.53276 2.37866 5.04283 2.1665 5.63866 2.1665C6.2345 2.1665 6.74456 2.37866 7.16887 2.80296C7.59318 3.22727 7.80533 3.73734 7.80533 4.33317C7.80533 4.929 7.59318 5.43907 7.16887 5.86338C6.74456 6.28768 6.2345 6.49984 5.63866 6.49984ZM11.0553 4.33317C11.0553 4.929 10.8432 5.43907 10.4189 5.86338C9.99457 6.28768 9.4845 6.49984 8.88866 6.49984C8.78936 6.49984 8.66297 6.48855 8.5095 6.46598C8.35602 6.44341 8.22963 6.41859 8.13033 6.3915C8.37408 6.10262 8.5614 5.78213 8.69231 5.43005C8.82321 5.07796 8.88866 4.71234 8.88866 4.33317C8.88866 3.954 8.82321 3.58838 8.69231 3.2363C8.5614 2.88421 8.37408 2.56373 8.13033 2.27484C8.25672 2.2297 8.38311 2.20036 8.5095 2.18682C8.63588 2.17327 8.76227 2.1665 8.88866 2.1665C9.4845 2.1665 9.99457 2.37866 10.4189 2.80296C10.8432 3.22727 11.0553 3.73734 11.0553 4.33317Z" fill="#FF42EB"/>
</g>
<defs>
<clipPath id="clip0_3251_5275">
<rect width="13" height="13" fill="white" transform="translate(0.763672)"/>
</clipPath>
</defs>
</svg>
