<svg width="19" height="20" viewBox="0 0 19 20" fill="none" xmlns="http://www.w3.org/2000/svg">
<path fill-rule="evenodd" clip-rule="evenodd" d="M0.750244 10.0004C0.750545 5.82597 3.69955 2.23311 7.79378 1.419C11.888 0.604894 15.9872 2.79628 17.5844 6.653C19.1816 10.5097 17.8321 14.9577 14.3611 17.2766C10.8901 19.5956 6.26433 19.1397 3.31274 16.1879C1.67184 14.5468 0.750077 12.3211 0.750244 10.0004Z" stroke="#909090" stroke-width="1.5" stroke-linecap="round" stroke-linejoin="round"/>
<path d="M6.21875 9.25024C5.80454 9.25024 5.46875 9.58603 5.46875 10.0002C5.46875 10.4145 5.80454 10.7502 6.21875 10.7502V9.25024ZM9.5 10.7502C9.91421 10.7502 10.25 10.4145 10.25 10.0002C10.25 9.58603 9.91421 9.25024 9.5 9.25024V10.7502ZM9.5 9.25024C9.08579 9.25024 8.75 9.58603 8.75 10.0002C8.75 10.4145 9.08579 10.7502 9.5 10.7502V9.25024ZM12.7812 10.7502C13.1955 10.7502 13.5312 10.4145 13.5312 10.0002C13.5312 9.58603 13.1955 9.25024 12.7812 9.25024V10.7502ZM10.2497 10.0002C10.2497 9.58603 9.91391 9.25024 9.49969 9.25024C9.08548 9.25024 8.74969 9.58603 8.74969 10.0002H10.2497ZM8.74969 13.2815C8.74969 13.6957 9.08548 14.0315 9.49969 14.0315C9.91391 14.0315 10.2497 13.6957 10.2497 13.2815H8.74969ZM8.74969 10.0002C8.74969 10.4145 9.08548 10.7502 9.49969 10.7502C9.91391 10.7502 10.2497 10.4145 10.2497 10.0002H8.74969ZM10.2497 6.71899C10.2497 6.30478 9.91391 5.96899 9.49969 5.96899C9.08548 5.96899 8.74969 6.30478 8.74969 6.71899H10.2497ZM6.21875 10.0002V10.7502H9.5V10.0002V9.25024H6.21875V10.0002ZM9.5 10.0002V10.7502H12.7812V10.0002V9.25024H9.5V10.0002ZM9.49969 10.0002H8.74969V13.2815H9.49969H10.2497V10.0002H9.49969ZM9.49969 10.0002H10.2497V6.71899H9.49969H8.74969V10.0002H9.49969Z" fill="#909090"/>
</svg>
