<svg width="20" height="19" viewBox="0 0 20 19" fill="none" xmlns="http://www.w3.org/2000/svg">
<path fill-rule="evenodd" clip-rule="evenodd" d="M0.76416 9.50023C0.764461 5.32585 3.71347 1.73299 7.80769 0.91888C11.9019 0.104772 16.0011 2.29616 17.5983 6.15288C19.1955 10.0096 17.846 14.4575 14.375 16.7765C10.904 19.0955 6.27824 18.6396 3.32666 15.6877C1.68576 14.0467 0.763993 11.8209 0.76416 9.50023Z" stroke="#02CCDA" stroke-width="1.5" stroke-linecap="round" stroke-linejoin="round"/>
<path d="M6.23242 8.75C5.81821 8.75 5.48242 9.08579 5.48242 9.5C5.48242 9.91421 5.81821 10.25 6.23242 10.25V8.75ZM9.51367 10.25C9.92789 10.25 10.2637 9.91421 10.2637 9.5C10.2637 9.08579 9.92789 8.75 9.51367 8.75V10.25ZM9.51367 8.75C9.09946 8.75 8.76367 9.08579 8.76367 9.5C8.76367 9.91421 9.09946 10.25 9.51367 10.25V8.75ZM12.7949 10.25C13.2091 10.25 13.5449 9.91421 13.5449 9.5C13.5449 9.08579 13.2091 8.75 12.7949 8.75V10.25ZM10.2634 9.5C10.2634 9.08579 9.92758 8.75 9.51337 8.75C9.09915 8.75 8.76337 9.08579 8.76337 9.5H10.2634ZM8.76337 12.7812C8.76337 13.1955 9.09915 13.5312 9.51337 13.5312C9.92758 13.5312 10.2634 13.1955 10.2634 12.7812H8.76337ZM8.76337 9.5C8.76337 9.91421 9.09915 10.25 9.51337 10.25C9.92758 10.25 10.2634 9.91421 10.2634 9.5H8.76337ZM10.2634 6.21875C10.2634 5.80454 9.92758 5.46875 9.51337 5.46875C9.09915 5.46875 8.76337 5.80454 8.76337 6.21875H10.2634ZM6.23242 9.5V10.25H9.51367V9.5V8.75H6.23242V9.5ZM9.51367 9.5V10.25H12.7949V9.5V8.75H9.51367V9.5ZM9.51337 9.5H8.76337V12.7812H9.51337H10.2634V9.5H9.51337ZM9.51337 9.5H10.2634V6.21875H9.51337H8.76337V9.5H9.51337Z" fill="#02CCDA"/>
</svg>
