<svg width="21" height="18" viewBox="0 0 21 18" fill="none" xmlns="http://www.w3.org/2000/svg">
<path fill-rule="evenodd" clip-rule="evenodd" d="M4.60636 16.1448C3.7289 16.2961 2.82849 16.0674 2.12956 15.5157C1.43064 14.964 0.999045 14.1414 0.942362 13.2528V3.70345C0.901538 2.7014 1.51102 1.78717 2.4517 1.43945C5.21456 0.425527 8.31642 1.20205 10.2757 3.39811V17.0261C8.96236 15.9221 6.69303 15.8554 4.60636 16.1448Z" stroke="#02CCDA" stroke-linecap="round" stroke-linejoin="round"/>
<path fill-rule="evenodd" clip-rule="evenodd" d="M15.9447 16.1448C16.8222 16.2961 17.7226 16.0674 18.4215 15.5157C19.1204 14.964 19.552 14.1414 19.6087 13.2528V3.70345C19.6495 2.7014 19.0401 1.78717 18.0994 1.43945C15.3365 0.425527 12.2347 1.20205 10.2754 3.39811V17.0261C11.5887 15.9221 13.8581 15.8554 15.9447 16.1448Z" stroke="#02CCDA" stroke-linecap="round" stroke-linejoin="round"/>
<path d="M6.94206 8.19287C7.2182 8.19287 7.44206 7.96901 7.44206 7.69287C7.44206 7.41673 7.2182 7.19287 6.94206 7.19287V8.19287ZM4.27539 7.19287C3.99925 7.19287 3.77539 7.41673 3.77539 7.69287C3.77539 7.96901 3.99925 8.19287 4.27539 8.19287V7.19287ZM6.94206 10.8595C7.2182 10.8595 7.44206 10.6357 7.44206 10.3595C7.44206 10.0834 7.2182 9.85954 6.94206 9.85954V10.8595ZM4.27539 9.85954C3.99925 9.85954 3.77539 10.0834 3.77539 10.3595C3.77539 10.6357 3.99925 10.8595 4.27539 10.8595V9.85954ZM16.2751 8.19279C16.5512 8.19279 16.7751 7.96893 16.7751 7.69279C16.7751 7.41665 16.5512 7.19279 16.2751 7.19279V8.19279ZM13.6084 7.19279C13.3323 7.19279 13.1084 7.41665 13.1084 7.69279C13.1084 7.96893 13.3323 8.19279 13.6084 8.19279V7.19279ZM16.2751 10.8595C16.5512 10.8595 16.7751 10.6357 16.7751 10.3595C16.7751 10.0834 16.5512 9.85954 16.2751 9.85954V10.8595ZM13.6084 9.85954C13.3323 9.85954 13.1084 10.0834 13.1084 10.3595C13.1084 10.6357 13.3323 10.8595 13.6084 10.8595V9.85954ZM6.94206 7.69287V7.19287H4.27539V7.69287V8.19287H6.94206V7.69287ZM6.94206 10.3595V9.85954H4.27539V10.3595V10.8595H6.94206V10.3595ZM16.2751 7.69279V7.19279H13.6084V7.69279V8.19279H16.2751V7.69279ZM16.2751 10.3595V9.85954H13.6084V10.3595V10.8595H16.2751V10.3595Z" fill="#02CCDA"/>
</svg>
