<svg width="20" height="21" viewBox="0 0 20 21" fill="none" xmlns="http://www.w3.org/2000/svg">
<path d="M18.3703 11.1469C18.7275 11.3565 19.1871 11.2368 19.3967 10.8795C19.6063 10.5223 19.4866 10.0627 19.1293 9.85312L18.3703 11.1469ZM3.05856 1.29375L2.67149 1.93621L2.67903 1.94063L3.05856 1.29375ZM1.78452 1.3228L1.3686 0.698696L1.3686 0.698697L1.78452 1.3228ZM1.26731 2.4875L0.525414 2.59744C0.53275 2.64695 0.545022 2.69559 0.562046 2.74265L1.26731 2.4875ZM3.4608 10.7551C3.60171 11.1447 4.0317 11.3462 4.42121 11.2053C4.81072 11.0643 5.01224 10.6344 4.87133 10.2448L3.4608 10.7551ZM19.1293 11.1468C19.4866 10.9372 19.6063 10.4776 19.3967 10.1204C19.1871 9.76312 18.7275 9.64342 18.3703 9.85303L19.1293 11.1468ZM3.05855 19.7062L2.67899 19.0592L2.67151 19.0637L3.05855 19.7062ZM1.78451 19.6771L1.36859 20.3012H1.36859L1.78451 19.6771ZM1.2673 18.5124L0.562037 18.2573C0.545013 18.3043 0.532741 18.353 0.525405 18.4025L1.2673 18.5124ZM4.87132 10.7551C5.01223 10.3656 4.81071 9.93556 4.4212 9.79465C4.0317 9.65373 3.6017 9.85526 3.46079 10.2448L4.87132 10.7551ZM18.7495 11.2498C19.1638 11.2498 19.4995 10.914 19.4995 10.4998C19.4995 10.0856 19.1638 9.7498 18.7495 9.7498V11.2498ZM4.1658 9.7498C3.75159 9.7498 3.4158 10.0856 3.4158 10.4998C3.4158 10.914 3.75159 11.2498 4.1658 11.2498V9.7498ZM18.7498 10.5L19.1293 9.85312L3.43809 0.646866L3.05856 1.29375L2.67903 1.94063L18.3703 11.1469L18.7498 10.5ZM3.05856 1.29375L3.4456 0.651331C2.80244 0.26384 1.99343 0.282289 1.3686 0.698696L1.78452 1.3228L2.20045 1.94691C2.34216 1.85246 2.52565 1.84828 2.67152 1.93616L3.05856 1.29375ZM1.78452 1.3228L1.3686 0.698697C0.743768 1.1151 0.415339 1.85469 0.525414 2.59744L1.26731 2.4875L2.00921 2.37755C1.98424 2.20909 2.05873 2.04135 2.20045 1.94691L1.78452 1.3228ZM1.26731 2.4875L0.562046 2.74265L3.4608 10.7551L4.16606 10.5L4.87133 10.2448L1.97258 2.23235L1.26731 2.4875ZM18.7498 10.4999L18.3703 9.85303L2.67902 19.0593L3.05855 19.7062L3.43809 20.353L19.1293 11.1468L18.7498 10.4999ZM3.05855 19.7062L2.67151 19.0637C2.52564 19.1516 2.34215 19.1474 2.20044 19.053L1.78451 19.6771L1.36859 20.3012C1.99342 20.7176 2.80243 20.7361 3.44559 20.3486L3.05855 19.7062ZM1.78451 19.6771L2.20044 19.053C2.05872 18.9586 1.98423 18.7908 2.0092 18.6224L1.2673 18.5124L0.525405 18.4025C0.41533 19.1452 0.743759 19.8848 1.36859 20.3012L1.78451 19.6771ZM1.2673 18.5124L1.97257 18.7676L4.87132 10.7551L4.16605 10.4999L3.46079 10.2448L0.562037 18.2573L1.2673 18.5124ZM18.7495 10.4998V9.7498H4.1658V10.4998V11.2498H18.7495V10.4998Z" fill="#02CCDA"/>
</svg>
