<svg width="19" height="19" viewBox="0 0 19 19" fill="none" xmlns="http://www.w3.org/2000/svg">
<path d="M5.99219 11.5932C6.20372 12.1442 6.55033 12.6332 7.00019 13.0154C8.43084 14.2162 10.5128 14.2314 11.9609 13.0515C12.4169 12.6762 12.7715 12.1924 12.9922 11.6445" stroke="#111111" stroke-width="1.5" stroke-linecap="round" stroke-linejoin="round"/>
<path fill-rule="evenodd" clip-rule="evenodd" d="M17.6588 9.25987C17.6588 13.7702 14.0024 17.4265 9.49211 17.4265C4.98178 17.4265 1.32544 13.7702 1.32544 9.25987C1.32544 4.74954 4.98178 1.0932 9.49211 1.0932C11.658 1.0932 13.7353 1.95361 15.2668 3.48516C16.7984 5.01671 17.6588 7.09393 17.6588 9.25987Z" stroke="#111111" stroke-width="1.5" stroke-linecap="round" stroke-linejoin="round"/>
<path d="M5.99227 8.09318V6.92651" stroke="#111111" stroke-width="1.5" stroke-linecap="round"/>
<path d="M12.9923 8.09318V6.92651" stroke="#111111" stroke-width="1.5" stroke-linecap="round"/>
</svg>
